<?xml version="1.0" encoding="utf-8"?>
<!-- Generator: Adobe Illustrator 16.0.0, SVG Export Plug-In . SVG Version: 6.00 Build 0)  -->
<!DOCTYPE svg PUBLIC "-//W3C//DTD SVG 1.1//EN" "http://www.w3.org/Graphics/SVG/1.1/DTD/svg11.dtd">
<svg version="1.1" id="Layer_1" xmlns="http://www.w3.org/2000/svg" xmlns:xlink="http://www.w3.org/1999/xlink" x="0px" y="0px"
	 width="976.375px" height="313.426px" viewBox="0 0 976.375 313.426" enable-background="new 0 0 976.375 313.426"
	 xml:space="preserve">
<g>
	<g>
		<path fill="#FF2B06" d="M15.927,292.6L8.36,281.693h7.211l4.05,6.009l4.006-6.009h6.988l-7.567,10.771l8.501,12.24h-7.21
			l-4.807-7.254l-4.807,7.254H7.648L15.927,292.6z"/>
		<path d="M61.503,291.084H39.025v-4.764h22.478V291.084z M61.503,300.609H39.025v-4.766h22.478V300.609z"/>
		<path d="M78.726,278.131h-6.32v-5.207h6.32V278.131z M72.406,281.691h6.32v23.013h-6.32V281.691z"/>
		<path d="M82.82,281.691h6.009v3.205h0.133c1.603-2.582,4.362-3.828,7.033-3.828c6.721,0,8.412,3.783,8.412,9.479v14.154h-6.32
			v-12.996c0-3.783-1.113-5.652-4.05-5.652c-3.427,0-4.896,1.912-4.896,6.589v12.062H82.82V281.691z"/>
		<path d="M124.746,301.768h-0.089c-1.469,2.49-4.05,3.562-6.988,3.562c-6.943,0-10.326-5.965-10.326-12.33
			c0-6.187,3.427-11.929,10.193-11.929c2.715,0,5.386,1.156,6.854,3.429h-0.044h0.089v-11.574h6.32v31.781h-6.009V301.768
			L124.746,301.768z M119.227,285.833c-4.14,0-5.564,3.562-5.564,7.344c0,3.605,1.647,7.39,5.564,7.39
			c4.184,0,5.43-3.648,5.43-7.435C124.658,289.393,123.322,285.833,119.227,285.833z"/>
		<path d="M139.833,294.732c0.178,4.007,2.136,5.832,5.653,5.832c2.537,0,4.584-1.561,4.985-2.981h5.564
			c-1.781,5.431-5.564,7.744-10.771,7.744c-7.255,0-11.75-4.984-11.75-12.104c0-6.898,4.762-12.15,11.75-12.15
			c7.833,0,11.617,6.588,11.172,13.664L139.833,294.732L139.833,294.732z M150.115,290.729c-0.579-3.205-1.958-4.896-5.03-4.896
			c-4.006,0-5.163,3.115-5.252,4.896H150.115z"/>
		<path d="M159.282,281.691h6.009v2.938h0.089c1.513-2.444,4.006-3.562,6.854-3.562c7.21,0,10.46,5.832,10.46,12.373
			c0,6.144-3.383,11.886-10.104,11.886c-2.76,0-5.386-1.201-6.899-3.472h-0.089v10.947h-6.321L159.282,281.691L159.282,281.691z
			 M176.374,293.266c0-3.649-1.469-7.436-5.519-7.436c-4.139,0-5.475,3.693-5.475,7.436c0,3.736,1.424,7.299,5.519,7.299
			C175.039,300.564,176.374,297.004,176.374,293.266z"/>
		<path d="M190.793,294.732c0.178,4.007,2.136,5.832,5.653,5.832c2.537,0,4.584-1.561,4.985-2.981h5.564
			c-1.781,5.431-5.564,7.744-10.771,7.744c-7.255,0-11.75-4.984-11.75-12.104c0-6.898,4.762-12.15,11.75-12.15
			c7.833,0,11.617,6.588,11.172,13.664L190.793,294.732L190.793,294.732z M201.075,290.729c-0.579-3.205-1.958-4.896-5.03-4.896
			c-4.006,0-5.163,3.115-5.252,4.896H201.075z"/>
		<path d="M210.242,281.691h6.009v3.205h0.133c1.603-2.582,4.362-3.828,7.033-3.828c6.721,0,8.412,3.783,8.412,9.479v14.154h-6.32
			v-12.996c0-3.783-1.112-5.652-4.05-5.652c-3.427,0-4.896,1.912-4.896,6.589v12.062h-6.321V281.691L210.242,281.691z"/>
		<path d="M252.168,301.768h-0.089c-1.469,2.49-4.05,3.562-6.988,3.562c-6.942,0-10.326-5.965-10.326-12.33
			c0-6.187,3.428-11.929,10.193-11.929c2.715,0,5.386,1.156,6.854,3.429h-0.044h0.089v-11.574h6.319v31.781h-6.009L252.168,301.768
			L252.168,301.768z M246.649,285.833c-4.141,0-5.564,3.562-5.564,7.344c0,3.605,1.647,7.39,5.564,7.39
			c4.184,0,5.43-3.648,5.43-7.435C252.079,289.393,250.744,285.833,246.649,285.833z"/>
		<path d="M267.255,294.732c0.179,4.007,2.136,5.832,5.653,5.832c2.537,0,4.584-1.561,4.984-2.981h5.564
			c-1.781,5.431-5.564,7.744-10.771,7.744c-7.256,0-11.75-4.984-11.75-12.104c0-6.898,4.762-12.15,11.75-12.15
			c7.833,0,11.616,6.588,11.172,13.664L267.255,294.732L267.255,294.732z M277.537,290.729c-0.579-3.205-1.958-4.896-5.03-4.896
			c-4.006,0-5.163,3.115-5.252,4.896H277.537z"/>
		<path d="M286.704,281.691h6.009v3.205h0.133c1.604-2.582,4.362-3.828,7.033-3.828c6.721,0,8.412,3.783,8.412,9.479v14.154h-6.32
			v-12.996c0-3.783-1.11-5.652-4.05-5.652c-3.427,0-4.896,1.912-4.896,6.589v12.062h-6.321V281.691L286.704,281.691z"/>
		<path d="M320.218,281.691h4.629v4.229h-4.629v11.396c0,2.138,0.534,2.67,2.67,2.67c0.667,0,1.291-0.043,1.958-0.178v4.939
			c-1.065,0.178-2.445,0.225-3.691,0.225c-3.873,0-7.255-0.893-7.255-5.477V285.92h-3.828v-4.229h3.828v-6.898h6.318V281.691
			L320.218,281.691z"/>
		<path d="M327.16,272.924h6.32v31.779h-6.32V272.924z"/>
		<path d="M348.925,307.598c-1.38,3.693-3.561,5.209-7.923,5.209c-1.291,0-2.582-0.092-3.872-0.225v-5.209
			c1.202,0.09,2.448,0.27,3.694,0.225c2.181-0.225,2.893-2.492,2.181-4.315l-8.101-21.589h6.766l5.208,15.759h0.089l5.029-15.759
			h6.543L348.925,307.598z"/>
		<path d="M382.439,281.068c7.255,0,11.929,4.808,11.929,12.15c0,7.301-4.674,12.105-11.929,12.105
			c-7.213,0-11.887-4.807-11.887-12.105C370.555,285.875,375.229,281.068,382.439,281.068z M382.439,300.564
			c4.314,0,5.605-3.694,5.605-7.346c0-3.693-1.291-7.389-5.605-7.389c-4.273,0-5.564,3.693-5.564,7.389
			C376.875,296.87,378.166,300.564,382.439,300.564z"/>
		<path d="M396.68,281.691h6.012v4.271h0.089c1.155-2.895,4.271-4.896,7.344-4.896c0.445,0,0.979,0.09,1.379,0.225v5.875
			c-0.579-0.133-1.513-0.225-2.27-0.225c-4.631,0-6.231,3.34-6.231,7.391v10.371h-6.321L396.68,281.691L396.68,281.691z"/>
		<path d="M435.225,303.234c0,3.783-1.336,10.191-11.93,10.191c-4.54,0-9.836-2.137-10.146-7.389h6.273
			c0.579,2.357,2.492,3.16,4.718,3.16c3.52,0,5.119-2.404,5.074-5.697v-3.025h-0.089c-1.38,2.402-4.14,3.562-6.898,3.562
			c-6.897,0-9.837-5.252-9.837-11.572c0-5.965,3.43-11.396,9.884-11.396c3.023,0,5.341,1.021,6.854,3.693h0.089v-3.07h6.01
			L435.225,303.234L435.225,303.234z M429.215,292.909c0-3.738-1.291-7.076-5.386-7.076c-3.562,0-5.119,3.115-5.119,6.543
			c0,3.293,1.246,6.897,5.119,6.897C427.436,299.273,429.215,296.202,429.215,292.909z"/>
		<path d="M438.249,288.77c0.356-5.92,5.652-7.699,10.815-7.699c4.585,0,10.104,1.021,10.104,6.543v11.974
			c0,2.092,0.223,4.187,0.801,5.119h-6.409c-0.224-0.713-0.398-1.47-0.443-2.228c-2.003,2.094-4.941,2.851-7.745,2.851
			c-4.362,0-7.833-2.183-7.833-6.897c0-5.21,3.917-6.455,7.833-6.988c3.873-0.578,7.479-0.443,7.479-3.025
			c0-2.715-1.869-3.115-4.096-3.115c-2.402,0-3.961,0.979-4.184,3.473h-6.319L438.249,288.77L438.249,288.77z M452.848,293.441
			c-1.065,0.937-3.294,0.979-5.252,1.336c-1.958,0.398-3.736,1.066-3.736,3.384c0,2.358,1.822,2.938,3.872,2.938
			c4.938,0,5.117-3.916,5.117-5.299L452.848,293.441L452.848,293.441z"/>
		<path d="M463.172,281.691h6.009v3.205h0.136c1.603-2.582,4.359-3.828,7.03-3.828c6.724,0,8.412,3.783,8.412,9.479v14.154h-6.317
			v-12.996c0-3.783-1.113-5.652-4.053-5.652c-3.427,0-4.896,1.912-4.896,6.589v12.062h-6.321V281.691z"/>
		<path d="M494.283,278.131h-6.32v-5.207h6.32V278.131z M487.962,281.691h6.32v23.013h-6.32V281.691z"/>
		<path d="M496.953,299.941l11.973-13.485h-11.083v-4.765h19.406v4.765l-11.973,13.485h12.815v4.763H496.95L496.953,299.941
			L496.953,299.941z"/>
		<path d="M525.794,294.732c0.178,4.007,2.137,5.832,5.652,5.832c2.537,0,4.585-1.561,4.982-2.981h5.563
			c-1.78,5.431-5.563,7.744-10.771,7.744c-7.255,0-11.75-4.984-11.75-12.104c0-6.898,4.766-12.15,11.75-12.15
			c7.834,0,11.617,6.588,11.175,13.664L525.794,294.732L525.794,294.732z M536.075,290.729c-0.578-3.205-1.958-4.896-5.029-4.896
			c-4.006,0-5.163,3.115-5.252,4.896H536.075z"/>
		<path d="M561.668,301.768h-0.09c-1.469,2.49-4.05,3.562-6.987,3.562c-6.941,0-10.327-5.965-10.327-12.33
			c0-6.187,3.431-11.929,10.193-11.929c2.715,0,5.386,1.156,6.854,3.429h-0.045h0.092v-11.574h6.318v31.781h-6.009L561.668,301.768
			L561.668,301.768z M556.148,285.833c-4.143,0-5.563,3.562-5.563,7.344c0,3.605,1.646,7.39,5.563,7.39
			c4.184,0,5.43-3.648,5.43-7.435C561.578,289.393,560.243,285.833,556.148,285.833z"/>
		<path d="M590.729,278.799h-9.522v-5.875h26.038v5.875h-9.525v25.904h-6.985L590.729,278.799L590.729,278.799z"/>
		<path d="M610,272.924h23.77v5.875H616.99v6.812h15.397v5.431H616.99v7.789h17.136v5.875h-24.124L610,272.924L610,272.924z"/>
		<path d="M637.061,272.924h13.709c8.233,0,14.423,5.162,14.423,15.711c0,9.217-4.721,16.068-14.423,16.068h-13.709V272.924z
			 M644.049,298.829h6.231c4.05,0,7.923-2.492,7.923-9.524c0-6.408-2.229-10.505-9.17-10.505h-4.984V298.829z"/>
		<path d="M685.173,294.732c0.179,4.007,2.138,5.832,5.652,5.832c2.537,0,4.585-1.561,4.983-2.981h5.562
			c-1.78,5.431-5.562,7.744-10.771,7.744c-7.255,0-11.75-4.984-11.75-12.104c0-6.898,4.766-12.15,11.75-12.15
			c7.834,0,11.617,6.588,11.176,13.664L685.173,294.732L685.173,294.732z M695.454,290.729c-0.578-3.205-1.958-4.896-5.029-4.896
			c-4.006,0-5.163,3.115-5.252,4.896H695.454z"/>
		<path d="M716.462,304.704h-7.033l-7.878-23.013h6.633l4.854,15.714h0.089l4.853-15.714h6.275L716.462,304.704z"/>
		<path d="M730.303,294.732c0.181,4.007,2.14,5.832,5.652,5.832c2.537,0,4.585-1.561,4.984-2.981h5.562
			c-1.78,5.431-5.562,7.744-10.771,7.744c-7.257,0-11.75-4.984-11.75-12.104c0-6.898,4.764-12.15,11.75-12.15
			c7.834,0,11.615,6.588,11.173,13.664L730.303,294.732L730.303,294.732z M740.584,290.729c-0.578-3.205-1.958-4.896-5.029-4.896
			c-4.006,0-5.162,3.115-5.252,4.896H740.584z"/>
		<path d="M749.752,281.691h6.009v3.205h0.134c1.604-2.582,4.362-3.828,7.032-3.828c6.725,0,8.413,3.783,8.413,9.479v14.154h-6.32
			v-12.996c0-3.783-1.11-5.652-4.051-5.652c-3.428,0-4.896,1.912-4.896,6.589v12.062h-6.32L749.752,281.691L749.752,281.691z"/>
		<path d="M783.266,281.691h4.631v4.229h-4.631v11.396c0,2.138,0.534,2.67,2.672,2.67c0.67,0,1.291-0.043,1.959-0.178v4.939
			c-1.066,0.178-2.446,0.225-3.693,0.225c-3.872,0-7.255-0.893-7.255-5.477V285.92h-3.828v-4.229h3.828v-6.898h6.318
			L783.266,281.691L783.266,281.691z"/>
	</g>
</g>
<g>
	<g>
		<path fill="#FF2B06" d="M34.977,32.282H5.323V5.161h91.879v27.121H67.558v78.695H34.977V32.282z"/>
		<path fill="#FF2B06" d="M102.266,5.161h89.192v27.121h-56.59v13.186h56.59v25.203h-56.59v13.188h56.605v27.12h-89.207V5.161z"/>
		<path fill="#FF2B06" d="M196.945,5.161h53.5c35.266,0,47.729,26.084,47.729,52.753c0,32.466-17.19,53.063-54.096,53.063h-47.134
			L196.945,5.161L196.945,5.161z M229.545,83.858h12.75c20.31,0,23.278-16.456,23.278-26.396c0-6.656-2.086-25.179-25.652-25.179
			h-10.376V83.858L229.545,83.858z"/>
	</g>
	<g>
		<g>
			<path fill="#FF2B06" d="M345.021,70.201l-9.945-16.492l-9.698,16.492H301.49l22.677-33.346L302.332,4.959h23.896l8.851,15.767
				l9.103-15.767h23.891L346.24,36.855l22.677,33.346H345.021z"/>
		</g>
	</g>
</g>
<text transform="matrix(1 0 0 1 0 243.4941)" font-family="'Helvetica'" font-size="146.9047">Youth@DMHS</text>
</svg>
