<?xml version="1.0" encoding="utf-8"?>
<!-- Generator: Adobe Illustrator 16.0.0, SVG Export Plug-In . SVG Version: 6.00 Build 0)  -->
<!DOCTYPE svg PUBLIC "-//W3C//DTD SVG 1.1//EN" "http://www.w3.org/Graphics/SVG/1.1/DTD/svg11.dtd">
<svg version="1.1" id="Layer_1" xmlns="http://www.w3.org/2000/svg" xmlns:xlink="http://www.w3.org/1999/xlink" x="0px" y="0px"
	 width="938.5px" height="313.427px" viewBox="0 0 938.5 313.427" enable-background="new 0 0 938.5 313.427" xml:space="preserve">
<g>
	<g>
		<path fill="#FF2B06" d="M15.927,292.599L8.36,281.693h7.211l4.05,6.009l4.006-6.009h6.988l-7.567,10.771l8.501,12.24h-7.21
			l-4.807-7.255l-4.807,7.255H7.648L15.927,292.599z"/>
		<path d="M61.503,291.084H39.025v-4.763h22.478V291.084z M61.503,300.609H39.025v-4.764h22.478V300.609z"/>
		<path d="M78.726,278.132h-6.32v-5.208h6.32V278.132z M72.406,281.692h6.32v23.012h-6.32V281.692z"/>
		<path d="M82.82,281.692h6.009v3.205h0.133c1.603-2.582,4.362-3.828,7.033-3.828c6.721,0,8.412,3.783,8.412,9.479v14.154h-6.32
			v-12.997c0-3.783-1.113-5.652-4.05-5.652c-3.427,0-4.896,1.913-4.896,6.588v12.062H82.82V281.692z"/>
		<path d="M124.746,301.767h-0.089c-1.469,2.491-4.05,3.561-6.988,3.561c-6.943,0-10.326-5.965-10.326-12.329
			c0-6.187,3.427-11.929,10.193-11.929c2.715,0,5.386,1.157,6.854,3.428h-0.044h0.089v-11.573h6.32v31.78h-6.009V301.767
			L124.746,301.767z M119.227,285.832c-4.14,0-5.564,3.562-5.564,7.345c0,3.604,1.647,7.389,5.564,7.389
			c4.184,0,5.43-3.649,5.43-7.434C124.658,289.393,123.322,285.832,119.227,285.832z"/>
		<path d="M139.833,294.733c0.178,4.006,2.136,5.831,5.653,5.831c2.537,0,4.584-1.559,4.985-2.981h5.564
			c-1.781,5.43-5.564,7.744-10.771,7.744c-7.255,0-11.75-4.984-11.75-12.106c0-6.898,4.762-12.15,11.75-12.15
			c7.833,0,11.617,6.588,11.172,13.664L139.833,294.733L139.833,294.733z M150.115,290.728c-0.579-3.204-1.958-4.896-5.03-4.896
			c-4.006,0-5.163,3.116-5.252,4.896H150.115z"/>
		<path d="M159.282,281.692h6.009v2.938h0.089c1.513-2.446,4.006-3.561,6.854-3.561c7.21,0,10.46,5.831,10.46,12.373
			c0,6.143-3.383,11.885-10.104,11.885c-2.76,0-5.386-1.201-6.899-3.472h-0.089v10.948h-6.321L159.282,281.692L159.282,281.692z
			 M176.374,293.265c0-3.649-1.469-7.434-5.519-7.434c-4.139,0-5.475,3.694-5.475,7.434c0,3.738,1.424,7.3,5.519,7.3
			C175.039,300.564,176.374,297.004,176.374,293.265z"/>
		<path d="M190.793,294.733c0.178,4.006,2.136,5.831,5.653,5.831c2.537,0,4.584-1.559,4.985-2.981h5.564
			c-1.781,5.43-5.564,7.744-10.771,7.744c-7.255,0-11.75-4.984-11.75-12.106c0-6.898,4.762-12.15,11.75-12.15
			c7.833,0,11.617,6.588,11.172,13.664L190.793,294.733L190.793,294.733z M201.075,290.728c-0.579-3.204-1.958-4.896-5.03-4.896
			c-4.006,0-5.163,3.116-5.252,4.896H201.075z"/>
		<path d="M210.242,281.692h6.009v3.205h0.133c1.603-2.582,4.362-3.828,7.033-3.828c6.721,0,8.412,3.783,8.412,9.479v14.154h-6.32
			v-12.997c0-3.783-1.112-5.652-4.05-5.652c-3.427,0-4.896,1.913-4.896,6.588v12.062h-6.321V281.692L210.242,281.692z"/>
		<path d="M252.168,301.767h-0.089c-1.469,2.491-4.05,3.561-6.988,3.561c-6.942,0-10.326-5.965-10.326-12.329
			c0-6.187,3.428-11.929,10.193-11.929c2.715,0,5.386,1.157,6.854,3.428h-0.044h0.089v-11.573h6.319v31.78h-6.009V301.767z
			 M246.649,285.832c-4.141,0-5.564,3.562-5.564,7.345c0,3.604,1.647,7.389,5.564,7.389c4.184,0,5.43-3.649,5.43-7.434
			C252.079,289.393,250.744,285.832,246.649,285.832z"/>
		<path d="M267.255,294.733c0.179,4.006,2.136,5.831,5.653,5.831c2.537,0,4.584-1.559,4.984-2.981h5.564
			c-1.781,5.43-5.564,7.744-10.771,7.744c-7.256,0-11.75-4.984-11.75-12.106c0-6.898,4.762-12.15,11.75-12.15
			c7.833,0,11.616,6.588,11.172,13.664L267.255,294.733L267.255,294.733z M277.537,290.728c-0.579-3.204-1.958-4.896-5.03-4.896
			c-4.006,0-5.163,3.116-5.252,4.896H277.537z"/>
		<path d="M286.704,281.692h6.009v3.205h0.133c1.604-2.582,4.362-3.828,7.033-3.828c6.721,0,8.412,3.783,8.412,9.479v14.154h-6.32
			v-12.997c0-3.783-1.112-5.652-4.05-5.652c-3.427,0-4.896,1.913-4.896,6.588v12.062h-6.321V281.692L286.704,281.692z"/>
		<path d="M320.218,281.692h4.629v4.229h-4.629v11.396c0,2.137,0.534,2.67,2.67,2.67c0.667,0,1.291-0.044,1.958-0.178v4.94
			c-1.067,0.178-2.447,0.223-3.693,0.223c-3.873,0-7.255-0.891-7.255-5.475v-13.576h-3.828v-4.229h3.828v-6.898h6.32V281.692
			L320.218,281.692z"/>
		<path d="M327.16,272.924h6.32v31.78h-6.32V272.924z"/>
		<path d="M348.925,307.597c-1.38,3.695-3.561,5.209-7.923,5.209c-1.291,0-2.582-0.09-3.872-0.224v-5.208
			c1.202,0.09,2.448,0.269,3.694,0.223c2.181-0.223,2.893-2.491,2.181-4.315l-8.101-21.588h6.766l5.208,15.757h0.089l5.029-15.758
			h6.543L348.925,307.597z"/>
		<path d="M382.439,281.069c7.255,0,11.929,4.807,11.929,12.15c0,7.301-4.674,12.106-11.929,12.106
			c-7.211,0-11.885-4.807-11.885-12.106C370.555,285.876,375.229,281.069,382.439,281.069z M382.439,300.564
			c4.316,0,5.607-3.694,5.607-7.345c0-3.693-1.291-7.389-5.607-7.389c-4.273,0-5.564,3.694-5.564,7.389
			C376.875,296.87,378.166,300.564,382.439,300.564z"/>
		<path d="M396.68,281.692h6.01v4.272h0.089c1.157-2.894,4.272-4.896,7.344-4.896c0.445,0,0.979,0.089,1.379,0.223v5.875
			c-0.579-0.133-1.513-0.223-2.27-0.223c-4.629,0-6.231,3.338-6.231,7.389v10.371h-6.321L396.68,281.692L396.68,281.692z"/>
		<path d="M435.225,303.235c0,3.783-1.336,10.191-11.93,10.191c-4.54,0-9.836-2.136-10.147-7.388h6.275
			c0.579,2.358,2.492,3.16,4.718,3.16c3.518,0,5.119-2.404,5.074-5.697v-3.026h-0.089c-1.38,2.403-4.14,3.561-6.898,3.561
			c-6.899,0-9.837-5.252-9.837-11.572c0-5.965,3.428-11.395,9.882-11.395c3.025,0,5.341,1.022,6.854,3.693h0.089v-3.07h6.01V303.235
			z M429.215,292.909c0-3.739-1.291-7.077-5.386-7.077c-3.561,0-5.119,3.116-5.119,6.543c0,3.294,1.246,6.899,5.119,6.899
			C427.436,299.274,429.215,296.202,429.215,292.909z"/>
		<path d="M438.249,288.77c0.356-5.92,5.652-7.7,10.815-7.7c4.585,0,10.104,1.022,10.104,6.543v11.973
			c0,2.092,0.223,4.186,0.801,5.119h-6.409c-0.224-0.712-0.4-1.469-0.445-2.226c-2.003,2.093-4.941,2.849-7.745,2.849
			c-4.362,0-7.833-2.181-7.833-6.898c0-5.208,3.917-6.455,7.833-6.987c3.873-0.579,7.479-0.445,7.479-3.027
			c0-2.715-1.87-3.115-4.096-3.115c-2.402,0-3.961,0.979-4.184,3.473h-6.319V288.77z M452.848,293.442
			c-1.067,0.936-3.294,0.979-5.252,1.336c-1.958,0.399-3.738,1.067-3.738,3.383c0,2.359,1.824,2.938,3.873,2.938
			c4.939,0,5.118-3.916,5.118-5.297L452.848,293.442L452.848,293.442z"/>
		<path d="M463.172,281.692h6.009v3.205h0.134c1.603-2.582,4.361-3.828,7.032-3.828c6.722,0,8.412,3.783,8.412,9.479v14.154h-6.319
			v-12.997c0-3.783-1.113-5.652-4.051-5.652c-3.427,0-4.896,1.913-4.896,6.588v12.062h-6.321V281.692z"/>
		<path d="M494.283,278.132h-6.32v-5.208h6.32V278.132z M487.962,281.692h6.32v23.012h-6.32V281.692z"/>
		<path d="M496.953,299.941l11.973-13.486h-11.083v-4.763h19.406v4.763l-11.973,13.486h12.817v4.763h-21.142L496.953,299.941
			L496.953,299.941z"/>
		<path d="M525.794,294.733c0.178,4.006,2.137,5.831,5.652,5.831c2.537,0,4.585-1.559,4.984-2.981h5.563
			c-1.78,5.43-5.563,7.744-10.771,7.744c-7.255,0-11.75-4.984-11.75-12.106c0-6.898,4.764-12.15,11.75-12.15
			c7.834,0,11.617,6.588,11.174,13.664L525.794,294.733L525.794,294.733z M536.075,290.728c-0.578-3.204-1.958-4.896-5.029-4.896
			c-4.006,0-5.163,3.116-5.252,4.896H536.075z"/>
		<path d="M561.668,301.767h-0.09c-1.469,2.491-4.05,3.561-6.987,3.561c-6.943,0-10.327-5.965-10.327-12.329
			c0-6.187,3.429-11.929,10.193-11.929c2.715,0,5.386,1.157,6.854,3.428h-0.045h0.09v-11.573h6.32v31.78h-6.009L561.668,301.767
			L561.668,301.767z M556.148,285.832c-4.141,0-5.563,3.562-5.563,7.345c0,3.604,1.646,7.389,5.563,7.389
			c4.184,0,5.43-3.649,5.43-7.434C561.578,289.393,560.243,285.832,556.148,285.832z"/>
		<path d="M590.729,278.8h-9.524v-5.876h26.038v5.876h-9.525v25.904h-6.987L590.729,278.8L590.729,278.8z"/>
		<path d="M610,272.924h23.77v5.876h-16.78v6.811h15.399v5.431h-15.399v7.789h17.136v5.875h-24.124L610,272.924L610,272.924z"/>
		<path d="M637.061,272.924h13.709c8.233,0,14.421,5.163,14.421,15.712c0,9.215-4.719,16.068-14.421,16.068h-13.709V272.924z
			 M644.049,298.829h6.231c4.05,0,7.923-2.492,7.923-9.525c0-6.409-2.227-10.504-9.17-10.504h-4.984V298.829z"/>
		<path d="M685.173,294.733c0.179,4.006,2.138,5.831,5.652,5.831c2.537,0,4.585-1.559,4.985-2.981h5.562
			c-1.78,5.43-5.562,7.744-10.771,7.744c-7.255,0-11.75-4.984-11.75-12.106c0-6.898,4.764-12.15,11.75-12.15
			c7.834,0,11.617,6.588,11.174,13.664L685.173,294.733L685.173,294.733z M695.454,290.728c-0.578-3.204-1.958-4.896-5.029-4.896
			c-4.006,0-5.163,3.116-5.252,4.896H695.454z"/>
		<path d="M716.462,304.704h-7.033l-7.878-23.012h6.633l4.852,15.712h0.089l4.853-15.712h6.275L716.462,304.704z"/>
		<path d="M730.303,294.733c0.179,4.006,2.138,5.831,5.652,5.831c2.537,0,4.585-1.559,4.985-2.981h5.562
			c-1.78,5.43-5.562,7.744-10.771,7.744c-7.256,0-11.75-4.984-11.75-12.106c0-6.898,4.763-12.15,11.75-12.15
			c7.834,0,11.616,6.588,11.172,13.664L730.303,294.733L730.303,294.733z M740.584,290.728c-0.578-3.204-1.958-4.896-5.029-4.896
			c-4.006,0-5.162,3.116-5.252,4.896H740.584z"/>
		<path d="M749.752,281.692h6.009v3.205h0.134c1.604-2.582,4.362-3.828,7.032-3.828c6.723,0,8.413,3.783,8.413,9.479v14.154h-6.32
			v-12.997c0-3.783-1.112-5.652-4.051-5.652c-3.428,0-4.896,1.913-4.896,6.588v12.062h-6.32L749.752,281.692L749.752,281.692z"/>
		<path d="M783.266,281.692h4.63v4.229h-4.63v11.396c0,2.137,0.534,2.67,2.672,2.67c0.668,0,1.291-0.044,1.958-0.178v4.94
			c-1.067,0.178-2.447,0.223-3.694,0.223c-3.872,0-7.255-0.891-7.255-5.475v-13.576h-3.828v-4.229h3.828v-6.898h6.32
			L783.266,281.692L783.266,281.692z"/>
	</g>
</g>
<g>
	<g>
		<path fill="#FF2B06" d="M34.977,32.282H5.323V5.161h91.879v27.121H67.558v78.695H34.977V32.282z"/>
		<path fill="#FF2B06" d="M102.266,5.161h89.192v27.121h-56.59v13.186h56.59v25.203h-56.59v13.188h56.605v27.12h-89.207V5.161z"/>
		<path fill="#FF2B06" d="M196.945,5.161h53.5c35.266,0,47.729,26.084,47.729,52.753c0,32.466-17.19,53.063-54.096,53.063h-47.134
			L196.945,5.161L196.945,5.161z M229.545,83.858h12.75c20.31,0,23.278-16.456,23.278-26.396c0-6.656-2.086-25.179-25.652-25.179
			h-10.376V83.858z"/>
	</g>
	<g>
		<g>
			<path fill="#FF2B06" d="M345.021,70.201l-9.945-16.492l-9.698,16.492H301.49l22.677-33.346L302.332,4.959h23.896l8.849,15.767
				l9.103-15.767h23.889l-21.829,31.896l22.677,33.346H345.021z"/>
		</g>
	</g>
</g>
<text transform="matrix(1 0 0 1 -9.7095 243.4941)" font-family="'Helvetica'" font-size="146.9047">Youth@DMHS</text>
</svg>
