<?xml version="1.0" encoding="utf-8"?>
<!-- Generator: Adobe Illustrator 16.0.0, SVG Export Plug-In . SVG Version: 6.00 Build 0)  -->
<!DOCTYPE svg PUBLIC "-//W3C//DTD SVG 1.1//EN" "http://www.w3.org/Graphics/SVG/1.1/DTD/svg11.dtd">
<svg version="1.1" id="Layer_1" xmlns="http://www.w3.org/2000/svg" xmlns:xlink="http://www.w3.org/1999/xlink" x="0px" y="0px"
	 width="1425.05px" height="199.521px" viewBox="0 0 1425.05 199.521" enable-background="new 0 0 1425.05 199.521"
	 xml:space="preserve">
<g>
	<g>
		<path fill="#FF2B06" d="M20.87,170.362l-7.567-10.905h7.211l4.05,6.009l4.006-6.009h6.988l-7.567,10.771l8.501,12.24h-7.21
			l-4.807-7.256l-4.807,7.256h-7.077L20.87,170.362z"/>
		<path d="M66.446,168.848H43.968v-4.764h22.478V168.848z M66.446,178.373H43.968v-4.762h22.478V178.373z"/>
		<path d="M83.669,155.896h-6.32v-5.208h6.32V155.896z M77.348,159.457h6.32v23.012h-6.32V159.457z"/>
		<path d="M87.763,159.457h6.009v3.205h0.133c1.603-2.582,4.362-3.828,7.033-3.828c6.721,0,8.412,3.783,8.412,9.48v14.154h-6.32
			v-12.997c0-3.783-1.113-5.652-4.05-5.652c-3.427,0-4.896,1.914-4.896,6.587v12.062h-6.321V159.457z"/>
		<path d="M129.689,179.531H129.6c-1.469,2.492-4.05,3.561-6.988,3.561c-6.943,0-10.326-5.965-10.326-12.329
			c0-6.188,3.427-11.929,10.193-11.929c2.715,0,5.386,1.157,6.854,3.427h-0.044h0.089v-11.572h6.32v31.78h-6.009V179.531
			L129.689,179.531z M124.17,163.596c-4.14,0-5.564,3.561-5.564,7.344c0,3.604,1.647,7.388,5.564,7.388
			c4.184,0,5.43-3.647,5.43-7.433C129.6,167.157,128.265,163.596,124.17,163.596z"/>
		<path d="M144.776,172.498c0.178,4.006,2.136,5.83,5.653,5.83c2.537,0,4.584-1.557,4.985-2.98h5.564
			c-1.781,5.431-5.564,7.744-10.771,7.744c-7.255,0-11.75-4.984-11.75-12.106c0-6.899,4.762-12.151,11.75-12.151
			c7.833,0,11.617,6.587,11.172,13.665L144.776,172.498L144.776,172.498z M155.058,168.492c-0.579-3.205-1.958-4.896-5.03-4.896
			c-4.006,0-5.163,3.115-5.252,4.896H155.058z"/>
		<path d="M164.225,159.457h6.009v2.938h0.089c1.513-2.448,4.006-3.562,6.854-3.562c7.21,0,10.46,5.831,10.46,12.374
			c0,6.144-3.383,11.885-10.104,11.885c-2.76,0-5.386-1.201-6.899-3.473h-0.089v10.949h-6.321L164.225,159.457L164.225,159.457z
			 M181.317,171.029c0-3.65-1.469-7.433-5.519-7.433c-4.139,0-5.475,3.693-5.475,7.433c0,3.738,1.424,7.299,5.519,7.299
			C179.982,178.328,181.317,174.768,181.317,171.029z"/>
		<path d="M195.736,172.498c0.178,4.006,2.136,5.83,5.653,5.83c2.537,0,4.584-1.557,4.985-2.98h5.564
			c-1.781,5.431-5.564,7.744-10.771,7.744c-7.255,0-11.75-4.984-11.75-12.106c0-6.899,4.762-12.151,11.75-12.151
			c7.833,0,11.617,6.587,11.172,13.665L195.736,172.498L195.736,172.498z M206.018,168.492c-0.579-3.205-1.958-4.896-5.03-4.896
			c-4.006,0-5.163,3.115-5.252,4.896H206.018z"/>
		<path d="M215.185,159.457h6.009v3.205h0.133c1.603-2.582,4.362-3.828,7.033-3.828c6.721,0,8.412,3.783,8.412,9.48v14.154h-6.32
			v-12.997c0-3.783-1.113-5.652-4.05-5.652c-3.427,0-4.896,1.914-4.896,6.587v12.062h-6.321V159.457z"/>
		<path d="M257.111,179.531h-0.089c-1.469,2.492-4.05,3.561-6.988,3.561c-6.943,0-10.326-5.965-10.326-12.329
			c0-6.188,3.427-11.929,10.193-11.929c2.715,0,5.386,1.157,6.854,3.427h-0.044h0.089v-11.572h6.32v31.78h-6.009V179.531z
			 M251.592,163.596c-4.14,0-5.564,3.561-5.564,7.344c0,3.604,1.647,7.388,5.564,7.388c4.184,0,5.43-3.647,5.43-7.433
			C257.022,167.157,255.687,163.596,251.592,163.596z"/>
		<path d="M272.198,172.498c0.178,4.006,2.136,5.83,5.653,5.83c2.537,0,4.584-1.557,4.984-2.98h5.564
			c-1.781,5.431-5.564,7.744-10.771,7.744c-7.255,0-11.75-4.984-11.75-12.106c0-6.899,4.762-12.151,11.75-12.151
			c7.833,0,11.617,6.587,11.172,13.665L272.198,172.498L272.198,172.498z M282.48,168.492c-0.579-3.205-1.958-4.896-5.03-4.896
			c-4.006,0-5.163,3.115-5.252,4.896H282.48z"/>
		<path d="M291.647,159.457h6.009v3.205h0.133c1.604-2.582,4.362-3.828,7.033-3.828c6.721,0,8.412,3.783,8.412,9.48v14.154h-6.32
			v-12.997c0-3.783-1.113-5.652-4.05-5.652c-3.427,0-4.896,1.914-4.896,6.587v12.062h-6.321V159.457z"/>
		<path d="M325.161,159.457h4.629v4.229h-4.629v11.395c0,2.137,0.534,2.67,2.67,2.67c0.667,0,1.291-0.045,1.958-0.178v4.94
			c-1.067,0.179-2.448,0.223-3.693,0.223c-3.873,0-7.256-0.89-7.256-5.476v-13.575h-3.827v-4.229h3.827v-6.898h6.321V159.457
			L325.161,159.457z"/>
		<path d="M332.103,150.688h6.319v31.78h-6.319V150.688z"/>
		<path d="M353.867,185.361c-1.38,3.695-3.561,5.207-7.923,5.207c-1.291,0-2.582-0.088-3.872-0.224v-5.206
			c1.202,0.09,2.448,0.268,3.694,0.223c2.181-0.223,2.893-2.492,2.181-4.317l-8.101-21.587h6.766l5.208,15.756h0.089l5.03-15.756
			h6.543L353.867,185.361z"/>
		<path d="M387.381,158.833c7.256,0,11.93,4.808,11.93,12.151c0,7.3-4.674,12.106-11.93,12.106c-7.211,0-11.884-4.808-11.884-12.106
			C375.497,163.641,380.17,158.833,387.381,158.833z M387.381,178.328c4.317,0,5.608-3.693,5.608-7.344
			c0-3.694-1.291-7.388-5.608-7.388c-4.272,0-5.563,3.693-5.563,7.388C381.818,174.635,383.109,178.328,387.381,178.328z"/>
		<path d="M401.622,159.457h6.009v4.273h0.09c1.156-2.894,4.272-4.896,7.344-4.896c0.444,0,0.979,0.089,1.379,0.224v5.875
			c-0.579-0.134-1.513-0.223-2.271-0.223c-4.629,0-6.23,3.338-6.23,7.39v10.37h-6.321L401.622,159.457L401.622,159.457z"/>
		<path d="M440.167,181c0,3.783-1.335,10.191-11.929,10.191c-4.54,0-9.836-2.135-10.148-7.389h6.276
			c0.579,2.358,2.492,3.161,4.718,3.161c3.518,0,5.119-2.403,5.074-5.697v-3.026h-0.089c-1.38,2.403-4.14,3.561-6.899,3.561
			c-6.898,0-9.836-5.252-9.836-11.572c0-5.964,3.428-11.396,9.881-11.396c3.026,0,5.342,1.024,6.854,3.694h0.089v-3.071h6.009V181
			L440.167,181z M434.158,170.674c0-3.739-1.291-7.077-5.386-7.077c-3.562,0-5.119,3.115-5.119,6.543
			c0,3.293,1.246,6.898,5.119,6.898C432.377,177.038,434.158,173.967,434.158,170.674z"/>
		<path d="M443.192,166.534c0.355-5.92,5.652-7.7,10.814-7.7c4.585,0,10.104,1.024,10.104,6.543v11.974
			c0,2.092,0.223,4.184,0.801,5.118h-6.41c-0.223-0.713-0.399-1.469-0.444-2.227c-2.003,2.093-4.941,2.85-7.745,2.85
			c-4.362,0-7.833-2.182-7.833-6.898c0-5.208,3.917-6.454,7.833-6.988c3.873-0.579,7.478-0.445,7.478-3.025
			c0-2.716-1.87-3.116-4.095-3.116c-2.403,0-3.961,0.979-4.184,3.472L443.192,166.534L443.192,166.534z M457.791,171.207
			c-1.067,0.937-3.294,0.979-5.252,1.336c-1.958,0.4-3.739,1.068-3.739,3.383c0,2.358,1.825,2.938,3.873,2.938
			c4.94,0,5.119-3.917,5.119-5.297L457.791,171.207L457.791,171.207z"/>
		<path d="M468.115,159.457h6.009v3.205h0.133c1.604-2.582,4.362-3.828,7.033-3.828c6.722,0,8.412,3.783,8.412,9.48v14.154h-6.32
			v-12.997c0-3.783-1.112-5.652-4.05-5.652c-3.427,0-4.896,1.914-4.896,6.587v12.062h-6.321V159.457z"/>
		<path d="M499.225,155.896h-6.32v-5.208h6.32V155.896z M492.905,159.457h6.32v23.012h-6.32V159.457z"/>
		<path d="M501.895,177.705l11.973-13.486h-11.083v-4.763h19.406v4.763l-11.973,13.486h12.817v4.764h-21.142L501.895,177.705
			L501.895,177.705z"/>
		<path d="M530.737,172.498c0.178,4.006,2.137,5.83,5.652,5.83c2.536,0,4.585-1.557,4.984-2.98h5.563
			c-1.78,5.431-5.563,7.744-10.771,7.744c-7.255,0-11.75-4.984-11.75-12.106c0-6.899,4.764-12.151,11.75-12.151
			c7.834,0,11.617,6.587,11.173,13.665L530.737,172.498L530.737,172.498z M541.018,168.492c-0.578-3.205-1.958-4.896-5.029-4.896
			c-4.006,0-5.163,3.115-5.252,4.896H541.018z"/>
		<path d="M566.611,179.531h-0.09c-1.469,2.492-4.05,3.561-6.987,3.561c-6.944,0-10.327-5.965-10.327-12.329
			c0-6.188,3.428-11.929,10.193-11.929c2.715,0,5.386,1.157,6.854,3.427h-0.045h0.089v-11.572h6.321v31.78h-6.009L566.611,179.531
			L566.611,179.531z M561.09,163.596c-4.14,0-5.562,3.561-5.562,7.344c0,3.604,1.646,7.388,5.562,7.388
			c4.185,0,5.431-3.647,5.431-7.433C566.521,167.157,565.186,163.596,561.09,163.596z"/>
		<path d="M595.671,156.563h-9.523v-5.875h26.038v5.875h-9.525v25.904h-6.988L595.671,156.563L595.671,156.563z"/>
		<path d="M614.943,150.688h23.768v5.875h-16.778v6.81h15.399v5.43h-15.399v7.789h17.135v5.876h-24.123L614.943,150.688
			L614.943,150.688z"/>
		<path d="M642.003,150.688h13.709c8.234,0,14.42,5.164,14.42,15.712c0,9.213-4.717,16.067-14.42,16.067h-13.709V150.688z
			 M648.992,176.593h6.23c4.051,0,7.924-2.491,7.924-9.524c0-6.41-2.228-10.504-9.17-10.504h-4.984V176.593z"/>
		<path d="M690.114,172.498c0.178,4.006,2.137,5.83,5.652,5.83c2.537,0,4.586-1.557,4.986-2.98h5.562
			c-1.779,5.431-5.562,7.744-10.771,7.744c-7.254,0-11.75-4.984-11.75-12.106c0-6.899,4.764-12.151,11.75-12.151
			c7.834,0,11.617,6.587,11.174,13.665L690.114,172.498L690.114,172.498z M700.396,168.492c-0.578-3.205-1.957-4.896-5.029-4.896
			c-4.006,0-5.162,3.115-5.252,4.896H700.396z"/>
		<path d="M721.404,182.469h-7.033l-7.877-23.012h6.631l4.854,15.711h0.09l4.852-15.711h6.275L721.404,182.469z"/>
		<path d="M735.246,172.498c0.178,4.006,2.137,5.83,5.652,5.83c2.537,0,4.584-1.557,4.984-2.98h5.564
			c-1.781,5.431-5.564,7.744-10.771,7.744c-7.256,0-11.75-4.984-11.75-12.106c0-6.899,4.762-12.151,11.75-12.151
			c7.834,0,11.617,6.587,11.172,13.665L735.246,172.498L735.246,172.498z M745.527,168.492c-0.578-3.205-1.959-4.896-5.029-4.896
			c-4.006,0-5.164,3.115-5.252,4.896H745.527z"/>
		<path d="M754.695,159.457h6.008v3.205h0.135c1.604-2.582,4.361-3.828,7.031-3.828c6.723,0,8.414,3.783,8.414,9.48v14.154h-6.32
			v-12.997c0-3.783-1.111-5.652-4.051-5.652c-3.428,0-4.895,1.914-4.895,6.587v12.062h-6.32v-23.011H754.695z"/>
		<path d="M788.208,159.457h4.629v4.229h-4.629v11.395c0,2.137,0.533,2.67,2.67,2.67c0.668,0,1.291-0.045,1.959-0.178v4.94
			c-1.066,0.179-2.445,0.223-3.693,0.223c-3.871,0-7.254-0.89-7.254-5.476v-13.575h-3.828v-4.229h3.828v-6.898h6.318V159.457
			L788.208,159.457z"/>
	</g>
</g>
<g>
	<g>
		<path fill="#FF2B06" d="M39.92,45.546H10.265V18.425h91.879v27.121H72.501v78.695H39.92V45.546z"/>
		<path fill="#FF2B06" d="M107.209,18.425h89.192v27.121h-56.59v13.187h56.59v25.203h-56.59v13.187h56.605v27.12h-89.207V18.425z"/>
		<path fill="#FF2B06" d="M201.887,18.425h53.5c35.266,0,47.729,26.084,47.729,52.753c0,32.467-17.191,53.063-54.096,53.063h-47.133
			V18.425z M234.488,97.122h12.75c20.309,0,23.278-16.456,23.278-26.396c0-6.656-2.086-25.18-25.652-25.18h-10.376V97.122
			L234.488,97.122z"/>
	</g>
	<g>
		<g>
			<path fill="#FF2B06" d="M349.962,83.465l-9.944-16.491l-9.698,16.491h-23.887l22.677-33.346l-21.835-31.896h23.895l8.85,15.767
				l9.103-15.767h23.888l-21.828,31.896l22.677,33.346H349.962z"/>
		</g>
	</g>
</g>
<text transform="matrix(1 0 0 1 386.0718 124.2576)" font-family="'Helvetica'" font-size="146.9047">Youth@DMHS</text>
</svg>
