<?xml version="1.0" encoding="utf-8"?>
<!-- Generator: Adobe Illustrator 16.0.0, SVG Export Plug-In . SVG Version: 6.00 Build 0)  -->
<!DOCTYPE svg PUBLIC "-//W3C//DTD SVG 1.1//EN" "http://www.w3.org/Graphics/SVG/1.1/DTD/svg11.dtd">
<svg version="1.1" id="Layer_1" xmlns="http://www.w3.org/2000/svg" xmlns:xlink="http://www.w3.org/1999/xlink" x="0px" y="0px"
	 width="1224px" height="792px" viewBox="0 0 1224 792" enable-background="new 0 0 1224 792" xml:space="preserve">
<text transform="matrix(1 0 0 1 79.2944 467.292)" fill="#FFFFFF" font-family="'Helvetica'" font-size="146.9047">Youth@DMHS</text>
<path fill="#FF2B06" d="M89.931,516.396l-7.567-10.905h7.211l4.05,6.009l4.006-6.009h6.988l-7.567,10.771l8.501,12.24h-7.21
	l-4.807-7.255l-4.807,7.255h-7.077L89.931,516.396z"/>
<g>
	<path fill="#FFFFFF" d="M135.507,514.882h-22.478v-4.763h22.478V514.882z M135.507,524.407h-22.478v-4.764h22.478V524.407z"/>
	<path fill="#FFFFFF" d="M152.73,501.93h-6.32v-5.208h6.32V501.93z M146.41,505.49h6.32v23.012h-6.32V505.49z"/>
	<path fill="#FFFFFF" d="M156.824,505.49h6.009v3.205h0.133c1.603-2.582,4.362-3.828,7.033-3.828c6.721,0,8.412,3.783,8.412,9.479
		v14.154h-6.32v-12.997c0-3.783-1.113-5.652-4.05-5.652c-3.427,0-4.896,1.913-4.896,6.588v12.062h-6.321V505.49z"/>
	<path fill="#FFFFFF" d="M198.75,525.564h-0.089c-1.469,2.491-4.05,3.561-6.988,3.561c-6.943,0-10.326-5.965-10.326-12.329
		c0-6.187,3.427-11.929,10.193-11.929c2.715,0,5.386,1.157,6.854,3.428h-0.044h0.089v-11.573h6.32v31.78h-6.009V525.564
		L198.75,525.564z M193.231,509.63c-4.14,0-5.564,3.562-5.564,7.345c0,3.604,1.647,7.389,5.564,7.389c4.184,0,5.43-3.649,5.43-7.434
		C198.662,513.19,197.326,509.63,193.231,509.63z"/>
	<path fill="#FFFFFF" d="M213.837,518.531c0.178,4.006,2.136,5.831,5.653,5.831c2.537,0,4.584-1.559,4.985-2.981h5.564
		c-1.781,5.43-5.564,7.744-10.771,7.744c-7.255,0-11.75-4.984-11.75-12.106c0-6.898,4.762-12.15,11.75-12.15
		c7.833,0,11.617,6.588,11.172,13.664L213.837,518.531L213.837,518.531z M224.119,514.525c-0.579-3.204-1.958-4.896-5.03-4.896
		c-4.006,0-5.163,3.116-5.252,4.896H224.119z"/>
	<path fill="#FFFFFF" d="M233.286,505.49h6.009v2.938h0.089c1.513-2.446,4.006-3.561,6.854-3.561c7.21,0,10.46,5.831,10.46,12.373
		c0,6.143-3.383,11.885-10.104,11.885c-2.76,0-5.386-1.201-6.899-3.472h-0.089v10.948h-6.321L233.286,505.49L233.286,505.49z
		 M250.378,517.062c0-3.649-1.469-7.434-5.519-7.434c-4.139,0-5.475,3.694-5.475,7.434c0,3.738,1.424,7.3,5.519,7.3
		C249.043,524.362,250.378,520.802,250.378,517.062z"/>
	<path fill="#FFFFFF" d="M264.797,518.531c0.178,4.006,2.136,5.831,5.653,5.831c2.537,0,4.584-1.559,4.985-2.981h5.564
		c-1.781,5.43-5.564,7.744-10.771,7.744c-7.255,0-11.75-4.984-11.75-12.106c0-6.898,4.762-12.15,11.75-12.15
		c7.833,0,11.617,6.588,11.172,13.664L264.797,518.531L264.797,518.531z M275.079,514.525c-0.579-3.204-1.958-4.896-5.03-4.896
		c-4.006,0-5.163,3.116-5.252,4.896H275.079z"/>
	<path fill="#FFFFFF" d="M284.246,505.49h6.009v3.205h0.133c1.603-2.582,4.362-3.828,7.033-3.828c6.721,0,8.412,3.783,8.412,9.479
		v14.154h-6.32v-12.997c0-3.783-1.112-5.652-4.05-5.652c-3.427,0-4.896,1.913-4.896,6.588v12.062h-6.321V505.49L284.246,505.49z"/>
	<path fill="#FFFFFF" d="M326.172,525.564h-0.089c-1.469,2.491-4.05,3.561-6.988,3.561c-6.942,0-10.326-5.965-10.326-12.329
		c0-6.187,3.428-11.929,10.193-11.929c2.715,0,5.386,1.157,6.854,3.428h-0.044h0.089v-11.573h6.319v31.78h-6.009V525.564z
		 M320.653,509.63c-4.141,0-5.564,3.562-5.564,7.345c0,3.604,1.647,7.389,5.564,7.389c4.184,0,5.43-3.649,5.43-7.434
		C326.083,513.19,324.748,509.63,320.653,509.63z"/>
	<path fill="#FFFFFF" d="M341.259,518.531c0.179,4.006,2.136,5.831,5.653,5.831c2.537,0,4.584-1.559,4.984-2.981h5.564
		c-1.781,5.43-5.564,7.744-10.771,7.744c-7.256,0-11.75-4.984-11.75-12.106c0-6.898,4.762-12.15,11.75-12.15
		c7.833,0,11.616,6.588,11.172,13.664L341.259,518.531L341.259,518.531z M351.541,514.525c-0.579-3.204-1.958-4.896-5.03-4.896
		c-4.006,0-5.163,3.116-5.252,4.896H351.541z"/>
	<path fill="#FFFFFF" d="M360.708,505.49h6.009v3.205h0.133c1.604-2.582,4.362-3.828,7.033-3.828c6.721,0,8.412,3.783,8.412,9.479
		v14.154h-6.32v-12.997c0-3.783-1.112-5.652-4.05-5.652c-3.427,0-4.896,1.913-4.896,6.588v12.062h-6.321V505.49L360.708,505.49z"/>
	<path fill="#FFFFFF" d="M394.222,505.49h4.629v4.229h-4.629v11.396c0,2.137,0.534,2.67,2.67,2.67c0.667,0,1.291-0.044,1.958-0.178
		v4.94c-1.067,0.178-2.447,0.223-3.693,0.223c-3.873,0-7.255-0.891-7.255-5.475v-13.576h-3.828v-4.229h3.828v-6.898h6.32V505.49
		L394.222,505.49z"/>
	<path fill="#FFFFFF" d="M401.164,496.722h6.32v31.78h-6.32V496.722z"/>
	<path fill="#FFFFFF" d="M422.929,531.395c-1.38,3.695-3.561,5.209-7.923,5.209c-1.291,0-2.582-0.09-3.872-0.224v-5.208
		c1.202,0.09,2.448,0.269,3.694,0.223c2.181-0.223,2.893-2.491,2.181-4.315l-8.101-21.588h6.766l5.208,15.757h0.089L426,505.49
		h6.543L422.929,531.395z"/>
	<path fill="#FFFFFF" d="M456.443,504.867c7.255,0,11.929,4.807,11.929,12.15c0,7.301-4.674,12.106-11.929,12.106
		c-7.211,0-11.885-4.807-11.885-12.106C444.559,509.674,449.232,504.867,456.443,504.867z M456.443,524.362
		c4.316,0,5.607-3.694,5.607-7.345c0-3.693-1.291-7.389-5.607-7.389c-4.273,0-5.564,3.694-5.564,7.389
		C450.879,520.668,452.17,524.362,456.443,524.362z"/>
	<path fill="#FFFFFF" d="M470.684,505.49h6.01v4.272h0.089c1.157-2.894,4.272-4.896,7.344-4.896c0.445,0,0.979,0.089,1.379,0.223
		v5.875c-0.579-0.133-1.513-0.223-2.27-0.223c-4.629,0-6.231,3.338-6.231,7.389v10.371h-6.321L470.684,505.49L470.684,505.49z"/>
	<path fill="#FFFFFF" d="M509.229,527.033c0,3.783-1.336,10.191-11.93,10.191c-4.54,0-9.836-2.136-10.147-7.388h6.275
		c0.579,2.358,2.492,3.16,4.718,3.16c3.518,0,5.119-2.404,5.074-5.697v-3.026h-0.089c-1.38,2.403-4.14,3.561-6.898,3.561
		c-6.899,0-9.837-5.252-9.837-11.572c0-5.965,3.428-11.395,9.882-11.395c3.025,0,5.341,1.022,6.854,3.693h0.089v-3.07h6.01V527.033z
		 M503.219,516.707c0-3.739-1.291-7.077-5.386-7.077c-3.561,0-5.119,3.116-5.119,6.543c0,3.294,1.246,6.899,5.119,6.899
		C501.439,523.072,503.219,520,503.219,516.707z"/>
	<path fill="#FFFFFF" d="M512.253,512.567c0.356-5.92,5.652-7.7,10.815-7.7c4.585,0,10.104,1.022,10.104,6.543v11.973
		c0,2.092,0.223,4.186,0.801,5.119h-6.409c-0.224-0.712-0.4-1.469-0.445-2.226c-2.003,2.093-4.941,2.849-7.745,2.849
		c-4.362,0-7.833-2.181-7.833-6.898c0-5.208,3.917-6.455,7.833-6.987c3.873-0.579,7.479-0.445,7.479-3.027
		c0-2.715-1.87-3.115-4.096-3.115c-2.402,0-3.961,0.979-4.184,3.473h-6.319V512.567z M526.852,517.24
		c-1.067,0.936-3.294,0.979-5.252,1.336c-1.958,0.399-3.738,1.067-3.738,3.383c0,2.359,1.824,2.938,3.873,2.938
		c4.939,0,5.118-3.916,5.118-5.297L526.852,517.24L526.852,517.24z"/>
	<path fill="#FFFFFF" d="M537.176,505.49h6.009v3.205h0.134c1.603-2.582,4.361-3.828,7.032-3.828c6.722,0,8.412,3.783,8.412,9.479
		v14.154h-6.319v-12.997c0-3.783-1.113-5.652-4.051-5.652c-3.427,0-4.896,1.913-4.896,6.588v12.062h-6.321V505.49z"/>
	<path fill="#FFFFFF" d="M568.287,501.93h-6.32v-5.208h6.32V501.93z M561.966,505.49h6.32v23.012h-6.32V505.49z"/>
	<path fill="#FFFFFF" d="M570.957,523.739l11.973-13.486h-11.083v-4.763h19.406v4.763l-11.973,13.486h12.817v4.763h-21.142
		L570.957,523.739L570.957,523.739z"/>
	<path fill="#FFFFFF" d="M599.798,518.531c0.178,4.006,2.137,5.831,5.652,5.831c2.537,0,4.585-1.559,4.984-2.981h5.563
		c-1.78,5.43-5.563,7.744-10.771,7.744c-7.255,0-11.75-4.984-11.75-12.106c0-6.898,4.764-12.15,11.75-12.15
		c7.834,0,11.617,6.588,11.174,13.664L599.798,518.531L599.798,518.531z M610.079,514.525c-0.578-3.204-1.958-4.896-5.029-4.896
		c-4.006,0-5.163,3.116-5.252,4.896H610.079z"/>
	<path fill="#FFFFFF" d="M635.672,525.564h-0.09c-1.469,2.491-4.05,3.561-6.987,3.561c-6.943,0-10.327-5.965-10.327-12.329
		c0-6.187,3.429-11.929,10.193-11.929c2.715,0,5.386,1.157,6.854,3.428h-0.045h0.09v-11.573h6.32v31.78h-6.009L635.672,525.564
		L635.672,525.564z M630.152,509.63c-4.141,0-5.563,3.562-5.563,7.345c0,3.604,1.646,7.389,5.563,7.389
		c4.184,0,5.43-3.649,5.43-7.434C635.582,513.19,634.247,509.63,630.152,509.63z"/>
	<path fill="#FFFFFF" d="M664.733,502.598h-9.524v-5.876h26.038v5.876h-9.525v25.904h-6.987L664.733,502.598L664.733,502.598z"/>
	<path fill="#FFFFFF" d="M684.004,496.722h23.77v5.876h-16.78v6.811h15.399v5.431h-15.399v7.789h17.136v5.875h-24.124
		L684.004,496.722L684.004,496.722z"/>
	<path fill="#FFFFFF" d="M711.064,496.722h13.709c8.233,0,14.421,5.163,14.421,15.712c0,9.215-4.719,16.068-14.421,16.068h-13.709
		V496.722z M718.053,522.627h6.231c4.05,0,7.923-2.492,7.923-9.525c0-6.409-2.227-10.504-9.17-10.504h-4.984V522.627z"/>
	<path fill="#FFFFFF" d="M759.177,518.531c0.179,4.006,2.138,5.831,5.652,5.831c2.537,0,4.585-1.559,4.985-2.981h5.562
		c-1.78,5.43-5.562,7.744-10.771,7.744c-7.255,0-11.75-4.984-11.75-12.106c0-6.898,4.764-12.15,11.75-12.15
		c7.834,0,11.617,6.588,11.174,13.664L759.177,518.531L759.177,518.531z M769.458,514.525c-0.578-3.204-1.958-4.896-5.029-4.896
		c-4.006,0-5.163,3.116-5.252,4.896H769.458z"/>
	<path fill="#FFFFFF" d="M790.466,528.502h-7.033l-7.878-23.012h6.633l4.852,15.712h0.089l4.853-15.712h6.275L790.466,528.502z"/>
	<path fill="#FFFFFF" d="M804.307,518.531c0.179,4.006,2.138,5.831,5.652,5.831c2.537,0,4.585-1.559,4.985-2.981h5.562
		c-1.78,5.43-5.562,7.744-10.771,7.744c-7.256,0-11.75-4.984-11.75-12.106c0-6.898,4.763-12.15,11.75-12.15
		c7.834,0,11.616,6.588,11.172,13.664L804.307,518.531L804.307,518.531z M814.588,514.525c-0.578-3.204-1.958-4.896-5.029-4.896
		c-4.006,0-5.162,3.116-5.252,4.896H814.588z"/>
	<path fill="#FFFFFF" d="M823.756,505.49h6.009v3.205h0.134c1.604-2.582,4.362-3.828,7.032-3.828c6.723,0,8.413,3.783,8.413,9.479
		v14.154h-6.32v-12.997c0-3.783-1.112-5.652-4.051-5.652c-3.428,0-4.896,1.913-4.896,6.588v12.062h-6.32L823.756,505.49
		L823.756,505.49z"/>
	<path fill="#FFFFFF" d="M857.27,505.49h4.63v4.229h-4.63v11.396c0,2.137,0.534,2.67,2.672,2.67c0.668,0,1.291-0.044,1.958-0.178
		v4.94c-1.067,0.178-2.447,0.223-3.694,0.223c-3.872,0-7.255-0.891-7.255-5.475v-13.576h-3.828v-4.229h3.828v-6.898h6.32
		L857.27,505.49L857.27,505.49z"/>
</g>
<g>
	<g>
		<path fill="#FF2B06" d="M108.981,256.08H79.327v-27.121h91.879v27.121h-29.644v78.695h-32.581V256.08z"/>
		<path fill="#FF2B06" d="M176.27,228.959h89.192v27.121h-56.59v13.186h56.59v25.203h-56.59v13.188h56.605v27.12H176.27V228.959z"/>
		<path fill="#FF2B06" d="M270.949,228.959h53.5c35.266,0,47.729,26.084,47.729,52.753c0,32.466-17.19,53.063-54.096,53.063h-47.134
			L270.949,228.959L270.949,228.959z M303.549,307.656h12.75c20.31,0,23.278-16.456,23.278-26.396
			c0-6.656-2.086-25.179-25.652-25.179h-10.376V307.656z"/>
	</g>
	<g>
		<g>
			<path fill="#FF2B06" d="M419.024,293.999l-9.945-16.492l-9.698,16.492h-23.887l22.677-33.346l-21.835-31.896h23.896l8.849,15.767
				l9.103-15.767h23.889l-21.829,31.896l22.677,33.346H419.024z"/>
		</g>
	</g>
</g>
</svg>
